0
SECTION
2
HEADER
9
$ACADVER
1
AC1015
9
$INSUNITS
70
1
0
ENDSEC
0
SECTION
2
ENTITIES
  0  
 LINE 
8
0
10
0.000000
20
0.000000
30
0.000000
11
4.000000
21
0.000000
31
0.000000
  0  
 LINE 
8
0
10
4.000000
20
0.000000
30
0.000000
11
4.000000
21
2.000000
31
0.000000
  0  
 LINE 
8
0
10
4.000000
20
2.000000
30
0.000000
11
0.000000
21
2.000000
31
0.000000
  0  
 LINE 
8
0
10
0.000000
20
2.000000
30
0.000000
11
0.000000
21
0.000000
31
0.000000
0
ENDSEC
0
EOF
